<svg width="255" height="53" viewBox="0 0 255 53" fill="none" xmlns="http://www.w3.org/2000/svg">
<path fill-rule="evenodd" clip-rule="evenodd" d="M13.1282 19.3478C15.4835 24.5728 14.764 29.9915 11.5215 31.4542C8.27888 32.9168 3.74097 29.8682 1.38589 24.6443C-0.969402 19.4203 -0.250085 14.0011 2.99255 12.5386C6.23518 11.0765 10.7729 14.1253 13.1282 19.3478V19.3478Z" fill="#F14140"/>
<path fill-rule="evenodd" clip-rule="evenodd" d="M45.1807 19.3478C42.8253 24.5728 43.5448 29.9915 46.7876 31.4542C50.0302 32.9168 54.5677 29.8682 56.9233 24.6443C59.2783 19.4203 58.5589 14.0011 55.3163 12.5386C52.0739 11.0765 47.536 14.1253 45.1807 19.3478V19.3478Z" fill="#F14140"/>
<path fill-rule="evenodd" clip-rule="evenodd" d="M26.9109 8.87571C28.1182 14.4766 26.2779 19.6244 22.8006 20.3743C19.3236 21.1233 15.5261 17.19 14.319 11.5896C13.1119 5.9888 14.9522 0.84086 18.4293 0.0916044C21.9065 -0.657962 25.7038 3.27478 26.9109 8.87571V8.87571Z" fill="#F14140"/>
<path fill-rule="evenodd" clip-rule="evenodd" d="M31.3115 8.88047C30.1053 14.4813 31.9443 19.6295 35.4213 20.3785C38.8985 21.1285 42.6958 17.1952 43.9029 11.5945C45.1101 5.99356 43.27 0.845627 39.7927 0.0963718C36.3154 -0.652987 32.5182 3.27954 31.3115 8.88047V8.88047Z" fill="#F14140"/>
<path fill-rule="evenodd" clip-rule="evenodd" d="M22.5588 27.5986C21.7102 29.0644 17.7775 33.9165 15.0575 35.5718C12.3377 37.2271 8.96732 39.6511 9.53291 45.2169C10.0982 50.7838 15.8078 53.1663 19.5665 52.955C23.3253 52.7447 30.4121 52.0527 35.4718 52.754C40.5311 53.4553 46.9169 52.9239 48.4123 47.5943C49.9077 42.2647 46.5632 38.869 43.9534 36.9423C41.3437 35.0166 36.9855 29.256 35.6428 26.6114C34.3003 23.9678 27.4669 19.1261 22.5588 27.5986V27.5986Z" fill="#F14140"/>
<path d="M99.3912 40.7358H84.9545V17.9237H89.4191V36.76H99.3912V40.7358Z" fill="black"/>
<path d="M99.5058 32.5886C99.5058 29.8294 100.179 27.7112 101.526 26.2338C102.873 24.7348 104.763 23.9852 107.197 23.9852C108.5 23.9852 109.63 24.1916 110.586 24.6044C111.542 25.0172 112.335 25.6038 112.965 26.3642C113.595 27.1029 114.062 28.0045 114.366 29.069C114.692 30.1336 114.855 31.3068 114.855 32.5886C114.855 35.3478 114.182 37.4769 112.835 38.976C111.509 40.4533 109.63 41.192 107.197 41.192C105.893 41.192 104.763 40.9856 103.807 40.5728C102.852 40.16 102.048 39.5843 101.396 38.8456C100.766 38.0852 100.288 37.1727 99.962 36.1082C99.6579 35.0436 99.5058 33.8704 99.5058 32.5886ZM103.873 32.5886C103.873 33.3056 103.938 33.9682 104.068 34.5765C104.199 35.1848 104.394 35.7171 104.655 36.1734C104.915 36.6296 105.252 36.9881 105.665 37.2488C106.1 37.4878 106.61 37.6073 107.197 37.6073C108.305 37.6073 109.13 37.2053 109.673 36.4015C110.217 35.5976 110.488 34.3267 110.488 32.5886C110.488 31.0895 110.238 29.8838 109.739 28.9713C109.239 28.0371 108.392 27.57 107.197 27.57C106.154 27.57 105.339 27.961 104.753 28.7432C104.166 29.5253 103.873 30.8071 103.873 32.5886Z" fill="black"/>
<path d="M122.885 32.9797L123.439 35.489H123.602L124.058 32.9145L126.828 24.4415H131.39L124.579 40.8987H122.005L114.933 24.4415H119.854L122.885 32.9797Z" fill="black"/>
<path d="M132.973 24.4415H137.209V40.7358H132.973V24.4415ZM132.354 19.8465C132.354 19.2164 132.582 18.6841 133.038 18.2496C133.516 17.7934 134.168 17.5653 134.993 17.5653C135.819 17.5653 136.481 17.7934 136.981 18.2496C137.503 18.6841 137.763 19.2164 137.763 19.8465C137.763 20.4765 137.503 21.0088 136.981 21.4433C136.481 21.8561 135.819 22.0625 134.993 22.0625C134.168 22.0625 133.516 21.8561 133.038 21.4433C132.582 21.0088 132.354 20.4765 132.354 19.8465Z" fill="black"/>
<path d="M151.175 40.7358V31.4806C151.175 30.1553 150.98 29.1994 150.589 28.6128C150.219 28.0262 149.578 27.7329 148.666 27.7329C147.862 27.7329 147.178 27.9719 146.613 28.4499C146.07 28.9061 145.679 29.4818 145.44 30.1771V40.7358H141.203V24.4415H144.56L145.049 26.5923H145.179C145.679 25.8971 146.341 25.2888 147.167 24.7673C147.992 24.2459 149.057 23.9852 150.361 23.9852C151.164 23.9852 151.881 24.0938 152.511 24.3111C153.141 24.5284 153.674 24.8868 154.108 25.3865C154.543 25.8862 154.869 26.5706 155.086 27.4396C155.303 28.2869 155.412 29.3406 155.412 30.6007V40.7358H151.175Z" fill="black"/>
<path d="M172.583 40.7358C172.583 43.1039 171.943 44.8419 170.661 45.9499C169.379 47.0797 167.587 47.6446 165.284 47.6446C163.719 47.6446 162.481 47.5359 161.569 47.3187C160.678 47.1014 160.004 46.8733 159.548 46.6343L160.428 43.2777C160.928 43.4732 161.503 43.6687 162.155 43.8643C162.829 44.0598 163.654 44.1576 164.632 44.1576C166.109 44.1576 167.109 43.8317 167.63 43.1799C168.173 42.5499 168.445 41.6591 168.445 40.5076V39.4648H168.314C167.554 40.4859 166.207 40.9965 164.273 40.9965C162.166 40.9965 160.591 40.3447 159.548 39.0412C158.527 37.7376 158.016 35.6954 158.016 32.9145C158.016 30.0033 158.712 27.7981 160.102 26.299C161.492 24.7999 163.513 24.0504 166.164 24.0504C167.554 24.0504 168.792 24.1482 169.879 24.3437C170.987 24.5392 171.888 24.7673 172.583 25.0281V40.7358ZM165.414 37.6073C166.24 37.6073 166.87 37.4226 167.304 37.0533C167.76 36.6839 168.108 36.1299 168.347 35.3912V28.0588C167.673 27.7764 166.837 27.6351 165.838 27.6351C164.751 27.6351 163.904 28.0479 163.296 28.8735C162.687 29.6774 162.383 30.97 162.383 32.7516C162.383 34.3375 162.644 35.5433 163.165 36.3689C163.687 37.1945 164.436 37.6073 165.414 37.6073Z" fill="black"/>
<path d="M186.047 34.6091C186.047 33.9139 185.786 33.349 185.265 32.9145C184.765 32.48 184.124 32.0889 183.342 31.7413C182.582 31.372 181.745 31.0026 180.833 30.6333C179.942 30.2422 179.106 29.7751 178.323 29.232C177.563 28.6671 176.922 27.9719 176.401 27.1463C175.901 26.3207 175.651 25.267 175.651 23.9852C175.651 22.8772 175.836 21.9213 176.205 21.1174C176.574 20.2918 177.096 19.6075 177.769 19.0643C178.465 18.5212 179.279 18.1193 180.214 17.8586C181.148 17.5978 182.191 17.4675 183.342 17.4675C184.667 17.4675 185.917 17.587 187.09 17.826C188.263 18.0432 189.23 18.3691 189.99 18.8036L188.589 22.5513C188.111 22.2472 187.394 21.9756 186.438 21.7366C185.482 21.4759 184.45 21.3455 183.342 21.3455C182.299 21.3455 181.495 21.5519 180.93 21.9647C180.387 22.3775 180.116 22.9315 180.116 23.6267C180.116 24.2785 180.366 24.8217 180.865 25.2562C181.387 25.6907 182.028 26.0926 182.788 26.462C183.57 26.8313 184.407 27.2115 185.297 27.6026C186.21 27.9936 187.046 28.4716 187.807 29.0365C188.589 29.5796 189.23 30.264 189.729 31.0895C190.251 31.8934 190.512 32.9036 190.512 34.1203C190.512 35.3369 190.305 36.3906 189.892 37.2814C189.501 38.1504 188.936 38.8782 188.198 39.4648C187.481 40.0514 186.601 40.4859 185.558 40.7684C184.537 41.0508 183.407 41.192 182.169 41.192C180.539 41.192 179.106 41.0399 177.867 40.7358C176.629 40.4316 175.716 40.1274 175.13 39.8233L176.564 36.0104C176.803 36.1408 177.107 36.282 177.476 36.4341C177.867 36.5861 178.302 36.7274 178.78 36.8577C179.258 36.9881 179.757 37.0967 180.279 37.1836C180.822 37.2705 181.376 37.314 181.941 37.314C183.266 37.314 184.276 37.0967 184.971 36.6622C185.688 36.206 186.047 35.5216 186.047 34.6091Z" fill="black"/>
<path d="M193.584 24.4415H197.82V40.7358H193.584V24.4415ZM192.965 19.8465C192.965 19.2164 193.193 18.6841 193.649 18.2496C194.127 17.7934 194.779 17.5653 195.604 17.5653C196.43 17.5653 197.092 17.7934 197.592 18.2496C198.114 18.6841 198.374 19.2164 198.374 19.8465C198.374 20.4765 198.114 21.0088 197.592 21.4433C197.092 21.8561 196.43 22.0625 195.604 22.0625C194.779 22.0625 194.127 21.8561 193.649 21.4433C193.193 21.0088 192.965 20.4765 192.965 19.8465Z" fill="black"/>
<path d="M200.12 24.4415H202.368V21.3781L206.605 20.1724V24.4415H210.581V28.0262H206.605V34.2832C206.605 35.413 206.713 36.2277 206.931 36.7274C207.17 37.2053 207.604 37.4443 208.234 37.4443C208.669 37.4443 209.038 37.4009 209.342 37.314C209.668 37.2271 210.027 37.0967 210.418 36.9229L211.167 40.1818C210.581 40.4642 209.896 40.7032 209.114 40.8987C208.332 41.0942 207.539 41.192 206.735 41.192C205.236 41.192 204.128 40.8118 203.411 40.0514C202.716 39.2693 202.368 37.9983 202.368 36.2385V28.0262H200.12V24.4415Z" fill="black"/>
<path d="M211.095 24.4415H213.344V21.3781L217.58 20.1724V24.4415H221.556V28.0262H217.58V34.2832C217.58 35.413 217.689 36.2277 217.906 36.7274C218.145 37.2053 218.58 37.4443 219.21 37.4443C219.644 37.4443 220.014 37.4009 220.318 37.314C220.644 37.2271 221.002 37.0967 221.393 36.9229L222.143 40.1818C221.556 40.4642 220.872 40.7032 220.09 40.8987C219.308 41.0942 218.515 41.192 217.711 41.192C216.212 41.192 215.104 40.8118 214.387 40.0514C213.692 39.2693 213.344 37.9983 213.344 36.2385V28.0262H211.095V24.4415Z" fill="black"/>
<path d="M236.865 39.3345C236.213 39.8559 235.322 40.3013 234.193 40.6706C233.084 41.0182 231.9 41.192 230.64 41.192C228.012 41.192 226.089 40.4316 224.872 38.9108C223.656 37.3683 223.047 35.2609 223.047 32.5886C223.047 29.7208 223.732 27.57 225.1 26.1361C226.469 24.7022 228.392 23.9852 230.868 23.9852C231.694 23.9852 232.498 24.0938 233.28 24.3111C234.062 24.5284 234.757 24.8868 235.366 25.3865C235.974 25.8862 236.463 26.5597 236.832 27.407C237.202 28.2543 237.386 29.308 237.386 30.5681C237.386 31.0244 237.354 31.5132 237.288 32.0346C237.245 32.556 237.169 33.0992 237.06 33.664H227.284C227.349 35.0328 227.697 36.0647 228.327 36.76C228.978 37.4552 230.021 37.8028 231.455 37.8028C232.346 37.8028 233.139 37.6724 233.834 37.4117C234.551 37.1293 235.094 36.8469 235.463 36.5644L236.865 39.3345ZM230.803 27.3744C229.695 27.3744 228.87 27.7112 228.327 28.3847C227.805 29.0365 227.49 29.9163 227.381 31.0244H233.443C233.53 29.8512 233.345 28.9496 232.889 28.3195C232.454 27.6895 231.759 27.3744 230.803 27.3744Z" fill="black"/>
<path d="M249.21 28.4173C248.536 28.1783 247.928 28.0588 247.385 28.0588C246.624 28.0588 245.983 28.2652 245.462 28.678C244.962 29.069 244.626 29.5796 244.452 30.2096V40.7358H240.215V24.4415H243.507L243.996 26.5923H244.126C244.495 25.7885 244.995 25.1693 245.625 24.7348C246.255 24.3002 246.994 24.083 247.841 24.083C248.406 24.083 249.047 24.2025 249.764 24.4415L249.21 28.4173Z" fill="black"/>
<path d="M249.047 38.5849C249.047 37.8245 249.286 37.2271 249.764 36.7925C250.242 36.3363 250.872 36.1082 251.654 36.1082C252.48 36.1082 253.132 36.3363 253.61 36.7925C254.088 37.2271 254.327 37.8245 254.327 38.5849C254.327 39.3453 254.088 39.9536 253.61 40.4099C253.132 40.8661 252.48 41.0942 251.654 41.0942C250.872 41.0942 250.242 40.8661 249.764 40.4099C249.286 39.9536 249.047 39.3453 249.047 38.5849Z" fill="black"/>
</svg>
